<?xml version="1.0" standalone="no"?>
<!DOCTYPE svg PUBLIC "-//W3C//DTD SVG 20010904//EN"
 "http://www.w3.org/TR/2001/REC-SVG-20010904/DTD/svg10.dtd">
<svg version="1.0" xmlns="http://www.w3.org/2000/svg"
 width="302.000000pt" height="302.000000pt" viewBox="0 0 302.000000 302.000000"
 preserveAspectRatio="xMidYMid meet">
<metadata>
Created by potrace 1.11, written by Peter Selinger 2001-2013
</metadata>
<g transform="translate(0.000000,302.000000) scale(0.100000,-0.100000)"
fill="#000000" stroke="none">
<path d="M1338 2780 c-98 -12 -279 -65 -376 -110 -256 -120 -493 -355 -606
-601 -55 -119 -94 -249 -112 -371 -89 -602 283 -1197 866 -1386 157 -51 200
-57 405 -57 183 0 194 2 310 33 422 116 737 409 878 817 53 154 62 218 62 425
-1 177 -2 190 -33 305 -116 425 -424 751 -832 883 -117 38 -174 49 -315 62
-122 11 -149 11 -247 0z m-78 -222 c60 -31 90 -77 90 -140 0 -99 -54 -158
-149 -166 -40 -4 -63 0 -88 13 -18 10 -35 16 -37 14 -2 -2 -110 -156 -240
-342 l-236 -338 20 -27 c44 -59 31 -167 -25 -210 l-24 -19 319 -306 319 -307
37 16 c110 46 237 -56 221 -178 -6 -46 -46 -102 -89 -124 -48 -25 -121 -21
-167 9 -72 48 -95 157 -46 229 l24 36 -315 305 -315 305 -62 -5 c-53 -4 -67
-2 -97 19 -55 37 -80 83 -80 143 0 68 29 112 94 144 43 22 54 23 95 14 25 -5
53 -13 62 -17 13 -6 66 64 250 326 128 183 232 340 232 348 -1 8 -9 37 -19 63
-14 40 -15 55 -5 86 15 53 47 90 95 112 54 24 83 24 136 -3z m685 -248 c396
-57 685 -388 685 -785 0 -368 -243 -677 -605 -771 -100 -26 -284 -23 -389 5
-225 60 -411 210 -507 409 -60 124 -81 215 -81 352 -1 144 17 223 81 355 147
302 485 482 816 435z"/>
<path d="M1909 2070 c-264 -41 -471 -281 -473 -548 -1 -166 58 -306 175 -417
115 -108 233 -155 389 -155 159 0 283 52 395 165 113 112 165 236 165 395 0
164 -50 283 -169 400 -132 131 -304 188 -482 160z"/>
</g>
</svg>
